<?xml version="1.0" encoding="utf-8"?>
<!-- Generator: Adobe Illustrator 19.0.0, SVG Export Plug-In . SVG Version: 6.00 Build 0)  -->
<svg version="1.1" xmlns="http://www.w3.org/2000/svg" xmlns:xlink="http://www.w3.org/1999/xlink" x="0px" y="0px" width="16px"
	 height="16px" viewBox="0 0 16 16" enable-background="new 0 0 16 16" xml:space="preserve">
<g id="outline">
	<path fill="#F6F6F6" d="M16,6.6l-3-3L11.6,5H9.4l1-1l-4-4H5.6L0,5.6v0.8l4,4L6.4,8H7v5h1.6l3,3h0.8l3.6-3.6v-0.8l-2.1-2.1L16,7.4
		V6.6z"/>
</g>
<g id="color_x5F_importance">
	<polygon fill="#C27D1A" points="12,11 9,11 9,7 11,7 10,8 12,10 15,7 13,5 12,6 7,6 9,4 6,1 1,6 4,9 6,7 8,7 8,12 11,12 10,13 
		12,15 15,12 13,10 	"/>
</g>
</svg>
