<?xml version="1.0" encoding="utf-8"?>
<!-- Generator: Adobe Illustrator 19.0.0, SVG Export Plug-In . SVG Version: 6.00 Build 0)  -->
<svg version="1.1" xmlns="http://www.w3.org/2000/svg" xmlns:xlink="http://www.w3.org/1999/xlink" x="0px" y="0px" width="16px"
	 height="16px" viewBox="0 0 16 16" enable-background="new 0 0 16 16" xml:space="preserve">
<g id="outline">
	<polygon fill="#F6F6F6" points="0,5.3 0,10.7 5.2,14 5.8,14 11,10.7 11,5.3 5.8,2 5.2,2 	"/>
</g>
<g id="color_x5F_importance">
	<g>
		<path fill="#652D90" d="M5.5,3L1,5.9v4.3L5.5,13l4.5-2.9V5.9L5.5,3z M5,11.5L2,9.6V6.8l3,1.9V11.5z M2.6,6l2.9-1.8L8.4,6L5.5,7.8
			L2.6,6z M9,9.6l-3,1.9V8.7l3-1.9V9.6z"/>
	</g>
</g>
<g id="icon_x5F_fg">
	<g>
		<polygon fill="#F0EFF1" points="8.4,6 5.5,7.8 2.6,6 5.5,4.2 		"/>
	</g>
	<g>
		<polygon fill="#F0EFF1" points="2,6.8 5,8.7 5,11.5 2,9.6 		"/>
	</g>
	<g>
		<polygon fill="#F0EFF1" points="6,11.5 6,8.7 9,6.8 9,9.6 		"/>
	</g>
</g>
</svg>
